<?xml version="1.0" encoding="utf-8"?>
<!-- Generator: Adobe Illustrator 22.0.1, SVG Export Plug-In . SVG Version: 6.00 Build 0)  -->
<svg version="1.1" id="Layer_1" xmlns="http://www.w3.org/2000/svg" xmlns:xlink="http://www.w3.org/1999/xlink" x="0px" y="0px"
	 viewBox="0 0 1000 1000" style="enable-background:new 0 0 1000 1000;" xml:space="preserve">
<style type="text/css">
	.st0{fill:#FF002C;stroke:#FFFFFF;stroke-width:72;stroke-miterlimit:10;}
</style>
<path class="st0" d="M343.7,391.6c0-86.2,70.1-156.3,156.3-156.3s156.3,70.1,156.3,156.3S586.2,548,500,548S343.7,477.9,343.7,391.6
	 M500.4,39.9h-0.8c-193.7,0.2-351.3,157.9-351.3,351.7c0,98.3,78.2,238.2,154.8,351.7c44.4,65.6,91.9,129,142.3,190
	c13.3,16.7,33.4,26.5,54.7,26.7h0.1c21.2-0.2,41.2-9.9,54.4-26.5C605,872.5,652.6,809,697,743.4C773.5,629.8,851.7,490,851.7,391.6
	C851.7,197.8,694.1,40.1,500.4,39.9"/>
</svg>
